{"title":"Solace.2015.BRRip.480p.x264.AAC-VYTO [P2PDL]","uid":13196766,"size":372754952,"categoryP":"video","categoryS":"movies","magnet":"?xt=urn:btih:ebf2aa2500109635c6897c0b27419b1ffd90dde4&amp;dn=Solace.2015.BRRip.480p.x264.AAC-VYTO+%5BP2PDL%5D&amp;tr=udp%3A%2F%2Ftracker.leechers-paradise.org%3A6969&amp;tr=udp%3A%2F%2Fzer0day.ch%3A1337&amp;tr=udp%3A%2F%2Fopen.demonii.com%3A1337&amp;tr=udp%3A%2F%2Ftracker.coppersurfer.tk%3A6969&amp;tr=udp%3A%2F%2Fexodus.desync.com%3A6969","seeders":2,"leechers":1,"uploader":"VYTOP2PDL","files":7,"time":1452498420,"description":"Solace.2015.BRRip.480p.x264.AAC-VYTO\r\n\r\n\r\nGenre: Action, Adventure, Thriller \nhttp://www.imdb.com/title/tt4076760/\r\n\r\n\r\nFormat                                   : MPEG-4\r\nFile size                                : 351 MiB\r\nDuration                                 : 1h 41mn\r\nOverall bit rate                         : 484 Kbps\r\n\r\nVideo\r\nFormat                                   : AVC\r\nBit rate                                 : 450 Kbps\r\nWidth                                    : 720 pixels\r\nHeight                                   : 304 pixels\r\nDisplay aspect ratio                     : 2.35:1\r\nFrame rate mode                          : Constant\r\nFrame rate                               : 23.976 fps\r\nBit depth                                : 8 bits\r\nStream size                              : 325 MiB (93%)\r\nWriting library                          : x264\r\n\r\nAudio\r\nFormat                                   : AAC\r\nBit rate mode                            : Variable\r\nBit rate                                 : 32.0 Kbps\r\nChannel(s)                               : 2 channels \r\nChannel positions                        : Front: L R\r\nSampling rate                            : 48.0 KHz\r\nStream size                              : 23.2 MiB (7%)\r\nLanguage                                 : English\r\n\r\nSubtitle                                 : Yes (English)\r\n\r\nScreen Shots: (Click to view)\r\n \nhttp://ititli.com/aZ \nhttp://ititli.com/ac \nhttp://ititli.com/ai \nhttp://ititli.com/ap \nhttp://ititli.com/aD \nhttp://ititli.com/aa \nhttp://ititli.com/ab \nhttp://ititli.com/az \nhttp://ititli.com/aI\r\n\r\n----------------------------------------------------------------------------------------------------\r\n\r\n\r\nEncoder Notes: Looking For Early Access To Anything You Can Provide WEBDL, DVDScr, DVDR, BluRay,\r\nDirect Audio, Music Releases and Seedboxes. If You Got anything to offer please contact us.\r\n\r\nSupport us by donating BC - 1FgwdzPsd1y25Gea8wP1qni35uGCtmkRCD\r\n\r\nSend some love!\r\nFind us and join us!","torrent":{"xt":"urn:btih:ebf2aa2500109635c6897c0b27419b1ffd90dde4","amp;dn":"Solace.2015.BRRip.480p.x264.AAC-VYTO+%5BP2PDL%5D","amp;tr":["udp%3A%2F%2Ftracker.leechers-paradise.org%3A6969","udp%3A%2F%2Fzer0day.ch%3A1337","udp%3A%2F%2Fopen.demonii.com%3A1337","udp%3A%2F%2Ftracker.coppersurfer.tk%3A6969","udp%3A%2F%2Fexodus.desync.com%3A6969"],"infoHash":"ebf2aa2500109635c6897c0b27419b1ffd90dde4","infoHashBuffer":{"type":"Buffer","data":[235,242,170,37,0,16,150,53,198,137,124,11,39,65,155,31,253,144,221,228]},"announce":[],"urlList":[]}}